<svg xmlns="http://www.w3.org/2000/svg" height="24" width="24" xml:space="preserve">
    <g class="jp-icon4 jp-icon-selectable" fill="#1bbeb3" style="fill-rule:nonzero;" transform="scale(0.6)">
        <path d="M5.065 10.45A3.48 3.48 0 0 1 8.54 6.971a3.48 3.48 0 0 1 3.477 3.477 1.262 1.262 0 0 1-1.26 1.264 1.262 1.262 0 0 1-1.262-1.264.953.953 0 0 0-.955-.95.952.952 0 0 0-.952.95 1.262 1.262 0 1 1-2.523 0m14.397 5.843a1.261 1.261 0 0 1-1.261 1.264H6.497a1.262 1.262 0 0 1-1.261-1.264 1.262 1.262 0 0 1 1.261-1.263h11.704a1.262 1.262 0 0 1 1.261 1.263m-5.469-5.135a1.262 1.262 0 0 1 .341-1.752L17.26 7.43a1.258 1.258 0 0 1 1.752.336 1.262 1.262 0 0 1-.34 1.752l-2.927 1.976a1.241 1.241 0 0 1-.703.22 1.27 1.27 0 0 1-1.049-.556m8.012 7.77a.9.9 0 0 1-.264.636l-2.174 2.174a.901.901 0 0 1-.637.264H5.598a.901.901 0 0 1-.637-.264l-2.175-2.174a.9.9 0 0 1-.263-.637V5.602a.9.9 0 0 1 .263-.636L4.961 2.79a.9.9 0 0 1 .637-.264H18.93a.9.9 0 0 1 .637.264l2.174 2.175a.9.9 0 0 1 .264.636zm1.85-15.416L21.018.672A2.294 2.294 0 0 0 19.395 0H5.13a2.294 2.294 0 0 0-1.623.673L.672 3.51A2.294 2.294 0 0 0 0 5.133v14.262c0 .608.242 1.192.672 1.622l2.839 2.839a2.294 2.294 0 0 0 1.622.672h14.262c.608 0 1.192-.242 1.622-.672l2.839-2.84a2.293 2.293 0 0 0 .672-1.621V5.133a2.294 2.294 0 0 0-.672-1.622" />
    </g>
</svg>
